<?xml version="1.0" encoding="utf-8"?>
<!-- Generator: Adobe Illustrator 18.1.1, SVG Export Plug-In . SVG Version: 6.00 Build 0)  -->
<svg version="1.1" id="Layer_1" xmlns="http://www.w3.org/2000/svg" xmlns:xlink="http://www.w3.org/1999/xlink" x="0px" y="0px"
	 viewBox="0 0 128 128" enable-background="new 0 0 128 128" xml:space="preserve">
<g>
	<g>
		<path fill="#303C42" d="M8.8,64.6c-0.6,0-1.2-0.3-1.6-0.8l-6.3-8.6c-0.3-0.4-0.4-1-0.4-1.5c0.1-0.5,0.4-1,0.8-1.3l61.5-45
			c0.7-0.5,1.7-0.5,2.4,0l61.5,45c0.4,0.3,0.7,0.8,0.8,1.3c0.1,0.5,0,1.1-0.4,1.5l-6.3,8.6c-0.7,0.9-1.9,1.1-2.8,0.4L64,24.7
			L10,64.2C9.6,64.5,9.2,64.6,8.8,64.6z M64,20.2c0.4,0,0.8,0.1,1.2,0.4l53.6,39.2l3.9-5.4L64,11.5L5.3,54.5l3.9,5.4l53.6-39.2
			C63.2,20.3,63.6,20.2,64,20.2z"/>
	</g>
	<g>
		<path fill="#303C42" d="M108.5,120.5H19.5c-1.1,0-2-0.9-2-2V54.7c0-0.6,0.3-1.2,0.8-1.6l44.5-32.6c0.7-0.5,1.7-0.5,2.4,0
			l44.5,32.6c0.5,0.4,0.8,1,0.8,1.6v44.4c0,0.8-0.5,1.5-1.2,1.8c-0.7,0.3-1.6,0.1-2.2-0.4l-0.7-0.7l-5,5l8.6,8.6
			c0.4,0.4,0.6,0.9,0.6,1.4v3.7C110.5,119.6,109.6,120.5,108.5,120.5z M21.5,116.5h85.1v-0.8l-9.4-9.4c-0.8-0.8-0.8-2,0-2.8l7.9-7.9
			c0.4-0.4,1-0.6,1.6-0.6V55.7L64,24.6L21.5,55.7V116.5z"/>
	</g>
	<g>
		<path fill="#303C42" d="M57.4,119.5h-25c-0.6,0-1-0.4-1-1v-30c0-7.4,6-13.5,13.5-13.5c7.4,0,13.5,6,13.5,13.5v30
			C58.4,119,57.9,119.5,57.4,119.5z M33.4,117.5h23v-29c0-6.3-5.1-11.5-11.5-11.5s-11.5,5.1-11.5,11.5V117.5z"/>
	</g>
	<g>
		<path fill="#303C42" d="M27.2,38c-0.3,0-0.6-0.1-0.9-0.2c-0.7-0.3-1.1-1-1.1-1.8V8.4c0-1.1,0.9-2,2-2h13.4c1.1,0,2,0.9,2,2v17.7
			c0,0.6-0.3,1.2-0.8,1.6l-13.4,9.8C28,37.9,27.6,38,27.2,38z M29.2,10.4V32l9.4-6.9V10.4H29.2z"/>
	</g>
	<g>
		<path fill="#303C42" d="M115.6,121.6c-2,0-3.9-0.8-5.3-2.2l-13.2-13.2c-0.8-0.8-0.8-2,0-2.8l7.9-7.9c0.8-0.8,2-0.8,2.8,0
			l13.2,13.2c2.9,2.9,2.9,7.7,0,10.7C119.5,120.8,117.6,121.6,115.6,121.6z M101.4,104.8l11.7,11.7c1.3,1.3,3.7,1.3,5,0
			c1.4-1.4,1.4-3.6,0-5l-11.7-11.7L101.4,104.8z"/>
	</g>
	<g>
		<path fill="#303C42" d="M87,103.1c-4.7,0-9.2-1.8-12.5-5.2c-3.3-3.3-5.2-7.8-5.2-12.5c0-4.7,1.8-9.2,5.2-12.5
			c3.3-3.3,7.8-5.2,12.5-5.2s9.2,1.8,12.5,5.2c6.9,6.9,6.9,18.1,0,25C96.2,101.3,91.7,103.1,87,103.1z M87,69.7
			c-4.2,0-8.1,1.6-11.1,4.6c-3,3-4.6,6.9-4.6,11.1c0,4.2,1.6,8.1,4.6,11.1c3,3,6.9,4.6,11.1,4.6s8.1-1.6,11.1-4.6
			c6.1-6.1,6.1-16.1,0-22.2C95.1,71.4,91.2,69.7,87,69.7z"/>
	</g>
	<g>
		<path fill="#303C42" d="M82.7,93.1c-0.3,0-0.5-0.1-0.7-0.3c-4.1-4.1-4.1-10.7,0-14.7c0.4-0.4,1-0.4,1.4,0c0.4,0.4,0.4,1,0,1.4
			c-3.3,3.3-3.3,8.6,0,11.9c0.4,0.4,0.4,1,0,1.4C83.2,93,82.9,93.1,82.7,93.1z"/>
	</g>
	<g>
		<path fill="#303C42" d="M100.6,103.7c-0.3,0-0.5-0.1-0.7-0.3l-3.8-3.8c-0.2-0.2-0.3-0.5-0.3-0.8s0.2-0.6,0.4-0.7
			c0.7-0.5,1.3-1,1.9-1.6c0.5-0.5,1-1.1,1.6-1.9c0.2-0.2,0.4-0.4,0.7-0.4c0.3,0,0.6,0.1,0.8,0.3l3.8,3.8c0.4,0.4,0.4,1,0,1.4
			l-3.6,3.6C101.1,103.6,100.9,103.7,100.6,103.7z M98.3,99l2.3,2.3l2.2-2.2l-2.3-2.3c-0.4,0.4-0.7,0.8-1.1,1.2
			C99.2,98.3,98.8,98.6,98.3,99z"/>
	</g>
	<g>
		<path fill="#303C42" d="M64,59.8c-6,0-10.9-4.9-10.9-10.9S58,38,64,38s10.9,4.9,10.9,10.9S70,59.8,64,59.8z M64,40
			c-4.9,0-8.9,4-8.9,8.9s4,8.9,8.9,8.9s8.9-4,8.9-8.9S68.9,40,64,40z"/>
	</g>
	<g>
		<path fill="#303C42" d="M46.9,10.4H20.9c-1.1,0-2-0.9-2-2s0.9-2,2-2h25.9c1.1,0,2,0.9,2,2S48,10.4,46.9,10.4z"/>
	</g>
</g>
</svg>
