<?xml version="1.0" encoding="utf-8"?>
<!-- Generator: Adobe Illustrator 18.1.1, SVG Export Plug-In . SVG Version: 6.00 Build 0)  -->
<svg version="1.1" id="Layer_1" xmlns="http://www.w3.org/2000/svg" xmlns:xlink="http://www.w3.org/1999/xlink" x="0px" y="0px"
	 viewBox="0 0 128 128" enable-background="new 0 0 128 128" xml:space="preserve">
<g>
	<g>
		<path fill="#303C42" d="M48.8,97c-12.9,0-25-5-34.1-14.1c-18.8-18.8-18.8-49.4,0-68.3C23.7,5.5,35.9,0.5,48.8,0.5
			c12.9,0,25,5,34.1,14.1c18.8,18.8,18.8,49.4,0,68.3C73.8,92,61.6,97,48.8,97z M48.8,4.5c-11.8,0-22.9,4.6-31.3,13
			c-17.3,17.3-17.3,45.3,0,62.6c8.4,8.4,19.5,13,31.3,13c11.8,0,22.9-4.6,31.3-13c17.3-17.3,17.3-45.3,0-62.6
			C71.7,9.1,60.6,4.5,48.8,4.5z"/>
	</g>
	<g>
		<path fill="#303C42" d="M48.8,85.8c-9.9,0-19.2-3.9-26.2-10.8c-7-7-10.8-16.3-10.8-26.2s3.9-19.2,10.8-26.2
			c7-7,16.3-10.8,26.2-10.8c9.9,0,19.2,3.9,26.2,10.8c7,7,10.8,16.3,10.8,26.2S81.9,68,74.9,75C67.9,81.9,58.6,85.8,48.8,85.8z
			 M48.8,13.7c-9.4,0-18.2,3.6-24.8,10.3c-6.6,6.6-10.3,15.4-10.3,24.8c0,9.4,3.6,18.2,10.3,24.8s15.4,10.3,24.8,10.3
			c9.4,0,18.2-3.6,24.8-10.3s10.3-15.4,10.3-24.8c0-9.4-3.6-18.2-10.3-24.8C66.9,17.4,58.1,13.7,48.8,13.7z"/>
	</g>
	<g>
		<path fill="#303C42" d="M20.4,47.3c-0.3,0-0.6-0.1-0.8-0.4c-0.3-0.4-0.2-1.1,0.2-1.4l28.4-20.8c0.4-0.3,0.8-0.3,1.2,0l28.4,20.8
			c0.4,0.3,0.5,1,0.2,1.4c-0.3,0.4-1,0.5-1.4,0.2L48.8,26.8L21,47.1C20.8,47.2,20.6,47.3,20.4,47.3z"/>
	</g>
	<g>
		<path fill="#303C42" d="M69.2,70h-41c-0.6,0-1-0.4-1-1V40.5c0-0.3,0.2-0.6,0.4-0.8l20.5-15c0.4-0.3,0.8-0.3,1.2,0l20.5,15
			c0.3,0.2,0.4,0.5,0.4,0.8V69C70.2,69.6,69.8,70,69.2,70z M29.3,68h39V41L48.8,26.8L29.3,41V68z"/>
	</g>
	<g>
		<path fill="#303C42" d="M114.1,127.5C114.1,127.5,114.1,127.5,114.1,127.5c-3.6,0-7-1.4-9.5-3.9L71,90c-0.4-0.4-0.6-1-0.6-1.7
			c0.1-0.6,0.4-1.2,1-1.5c3.2-1.9,6.1-4.2,8.7-6.8c2.6-2.6,4.9-5.5,6.8-8.7c0.3-0.5,0.9-0.9,1.5-1c0.6-0.1,1.2,0.1,1.7,0.6
			l33.6,33.6c5.2,5.2,5.2,13.7,0,19C121,126.1,117.7,127.5,114.1,127.5z M75.6,88.9l31.8,31.8c1.8,1.8,4.1,2.8,6.7,2.8h0
			c2.5,0,4.9-1,6.7-2.8c1.8-1.8,2.8-4.1,2.8-6.7c0-2.5-1-4.9-2.8-6.7L88.9,75.6c-1.8,2.6-3.8,5.1-6,7.3
			C80.6,85.1,78.2,87.1,75.6,88.9z"/>
	</g>
	<g>
		<path fill="#303C42" d="M48.8,46c-3.1,0-5.6-2.5-5.6-5.6c0-3.1,2.5-5.6,5.6-5.6c3.1,0,5.6,2.5,5.6,5.6C54.3,43.5,51.8,46,48.8,46z
			 M48.8,36.9c-2,0-3.6,1.6-3.6,3.6c0,2,1.6,3.6,3.6,3.6c2,0,3.6-1.6,3.6-3.6C52.3,38.5,50.7,36.9,48.8,36.9z"/>
	</g>
	<g>
		<path fill="#303C42" d="M54.5,70H43c-0.6,0-1-0.4-1-1V56.8c0-3.7,3-6.7,6.7-6.7c3.7,0,6.7,3,6.7,6.7V69C55.5,69.6,55,70,54.5,70z
			 M44,68h9.5V56.8c0-2.6-2.1-4.7-4.7-4.7c-2.6,0-4.7,2.1-4.7,4.7V68z"/>
	</g>
	<g>
		<path fill="#303C42" d="M113.6,117.9c-2,0-4.2-1.1-6-2.8c-1.4-1.4-2.3-3-2.7-4.6c-0.4-1.8,0-3.3,1-4.4c0.8-0.8,1.8-1.2,3.1-1.2
			c2,0,4.2,1.1,6,2.8c1.4,1.4,2.3,3,2.7,4.6c0.4,1.8,0,3.3-1,4.4C115.9,117.5,114.9,117.9,113.6,117.9z M109.1,106.9
			c-0.5,0-1.2,0.1-1.7,0.6c-0.7,0.7-0.6,1.9-0.5,2.6c0.3,1.3,1,2.5,2.1,3.7c1.4,1.4,3.1,2.2,4.6,2.2c0.5,0,1.2-0.1,1.7-0.6
			c0.7-0.7,0.6-1.9,0.5-2.6c-0.3-1.3-1-2.5-2.1-3.7C112.3,107.7,110.5,106.9,109.1,106.9z"/>
	</g>
</g>
</svg>
