<?xml version="1.0" encoding="utf-8"?>
<!-- Generator: Adobe Illustrator 18.1.1, SVG Export Plug-In . SVG Version: 6.00 Build 0)  -->
<svg version="1.1" id="Layer_1" xmlns="http://www.w3.org/2000/svg" xmlns:xlink="http://www.w3.org/1999/xlink" x="0px" y="0px"
	 viewBox="0 0 128 128" enable-background="new 0 0 128 128" xml:space="preserve">
<g>
	<g>
		<path fill="#303C42" d="M124.9,127.5H3.1c-0.6,0-1.2-0.3-1.6-0.8c-0.4-0.5-0.5-1.2-0.3-1.8l18.9-60.3c0.3-0.8,1-1.4,1.9-1.4h27.7
			c0.7,0,1.4,0.4,1.7,1c5,8.4,10.1,15.8,12.6,19.4c2.5-3.6,7.6-11,12.6-19.4c0.4-0.6,1-1,1.7-1H106c0.9,0,1.6,0.6,1.9,1.4l18.9,60.3
			c0.2,0.6,0.1,1.3-0.3,1.8C126.2,127.2,125.6,127.5,124.9,127.5z M5.8,123.5h116.4l-17.7-56.3H79.4c-6.9,11.4-13.7,20.9-13.8,21
			c-0.4,0.5-1,0.8-1.6,0.8s-1.2-0.3-1.6-0.8c-0.1-0.1-6.9-9.6-13.8-21H23.4L5.8,123.5z"/>
	</g>
	<g>
		<path fill="#303C42" d="M60.1,82.4H16.9c-0.6,0-1-0.4-1-1s0.4-1,1-1h43.2c0.6,0,1,0.4,1,1S60.7,82.4,60.1,82.4z"/>
	</g>
	<g>
		<path fill="#303C42" d="M111.1,82.4H67.9c-0.6,0-1-0.4-1-1s0.4-1,1-1h43.2c0.6,0,1,0.4,1,1S111.6,82.4,111.1,82.4z"/>
	</g>
	<g>
		<path fill="#303C42" d="M116.7,100.1H86.8c-0.6,0-1-0.4-1-1s0.4-1,1-1h29.9c0.6,0,1,0.4,1,1S117.2,100.1,116.7,100.1z"/>
	</g>
	<g>
		<path fill="#303C42" d="M86.8,110.6c-0.6,0-1-0.4-1-1V93.3c0-0.6,0.4-1,1-1s1,0.4,1,1v16.3C87.8,110.2,87.3,110.6,86.8,110.6z"/>
	</g>
	<g>
		<path fill="#303C42" d="M64,126.5c-0.6,0-1-0.4-1-1v-25.4H11.3c-0.6,0-1-0.4-1-1s0.4-1,1-1H64c0.6,0,1,0.4,1,1v26.4
			C65,126.1,64.6,126.5,64,126.5z"/>
	</g>
	<g>
		<path fill="#303C42" d="M64,89c-0.6,0-1.2-0.3-1.6-0.8c-1.2-1.7-29.1-40.6-29.1-57C33.3,14.3,47.1,0.5,64,0.5
			c16.9,0,30.7,13.8,30.7,30.7c0,16.3-27.9,55.3-29.1,57C65.2,88.7,64.6,89,64,89z M64,4.5c-14.7,0-26.7,12-26.7,26.7
			C37.3,44.1,58,74.9,64,83.5c6-8.7,26.7-39.4,26.7-52.3C90.7,16.5,78.7,4.5,64,4.5z"/>
	</g>
	<g>
		<path fill="#303C42" d="M64,49.1c-9.8,0-17.8-8-17.8-17.8s8-17.8,17.8-17.8s17.8,8,17.8,17.8S73.8,49.1,64,49.1z M64,15.4
			c-8.7,0-15.8,7.1-15.8,15.8S55.3,47.1,64,47.1c8.7,0,15.8-7.1,15.8-15.8S72.7,15.4,64,15.4z"/>
	</g>
</g>
</svg>
