<?xml version="1.0" encoding="utf-8"?>
<!-- Generator: Adobe Illustrator 18.1.1, SVG Export Plug-In . SVG Version: 6.00 Build 0)  -->
<svg version="1.1" id="Layer_1" xmlns="http://www.w3.org/2000/svg" xmlns:xlink="http://www.w3.org/1999/xlink" x="0px" y="0px"
	 viewBox="0 0 128 128" enable-background="new 0 0 128 128" xml:space="preserve">
<g>
	<g>
		<path fill="#303C42" d="M109.4,110.8c-11.7,0-18.1-27.5-18.1-53.4S97.7,4,109.4,4s18.1,27.5,18.1,53.4S121.2,110.8,109.4,110.8z
			 M109.4,8c-6.6,0-14.1,20.3-14.1,49.4c0,29.1,7.4,49.4,14.1,49.4s14.1-20.3,14.1-49.4C123.5,28.3,116.1,8,109.4,8z"/>
	</g>
	<g>
		<path fill="#303C42" d="M104.8,108.6c-0.3,0-0.6-0.1-0.9-0.2l-52.3-28c-3.5-1.9-7.4-2.8-11.3-2.8H16.9c-0.5,0-0.9,0-1.5-0.1
			c-0.3,0-0.7,0.1-1.1,0.1c-3.5,0-6.9-2-9.4-5.6c-1.8-2.2-3-4.8-3.4-7.7c-0.6-2.5-1-5.2-1-7.9c0-2.7,0.3-5.4,1-7.9
			c0.4-2.8,1.6-5.5,3.4-7.7c2.5-3.6,5.9-5.6,9.4-5.6c0.4,0,0.8,0,1.1,0.1c0.5,0,1-0.1,1.5-0.1h23.7c3.7,0,7.5-0.9,10.8-2.6
			l52.6-26.4c0.9-0.4,2-0.2,2.5,0.6s0.5,1.9-0.2,2.6c-6.4,6.1-10.8,25.8-10.8,47.8s4.4,41.7,10.8,47.8c0.7,0.7,0.8,1.8,0.2,2.6
			C106,108.3,105.4,108.6,104.8,108.6z M15.4,73.5c0.1,0,0.1,0,0.2,0c0.5,0,0.9,0.1,1.3,0.1h23.3c4.6,0,9.2,1.1,13.2,3.3l45.4,24.2
			c-4.6-9.7-7.4-25.8-7.4-43.8c0-18.1,2.9-34.4,7.5-44.1l-45.8,23c-3.9,2-8.3,3-12.6,3H16.9c-0.4,0-0.8,0-1.3,0.1
			c-0.2,0-0.3,0-0.5,0c-0.3,0-0.6-0.1-0.8-0.1c-2.2,0-4.4,1.4-6.2,4c0,0.1-0.1,0.1-0.1,0.1c-1.4,1.7-2.3,3.7-2.6,5.8
			c0,0.1,0,0.2,0,0.2c-0.6,2.2-0.9,4.6-0.9,7c0,2.4,0.3,4.8,0.9,7c0,0.1,0,0.1,0,0.2c0.3,2.2,1.2,4.2,2.6,5.8c0,0,0.1,0.1,0.1,0.1
			c1.8,2.5,4,4,6.2,4c0.2,0,0.4,0,0.8-0.1C15.2,73.5,15.3,73.5,15.4,73.5z"/>
	</g>
	<g>
		<path fill="#303C42" d="M47.5,77.4c-4.8,0-7.5-10.7-7.5-20.8s2.6-20.8,7.5-20.8c0.6,0,1,0.4,1,1s-0.4,1-1,1
			c-2.3,0-5.5,7.2-5.5,18.8s3.2,18.8,5.5,18.8c0.6,0,1,0.4,1,1S48,77.4,47.5,77.4z"/>
	</g>
	<g>
		<path fill="#303C42" d="M96.2,72.5c-0.7,0-1.5-0.1-2.4-0.2c-0.5-0.1-0.8-0.4-0.8-0.9c-0.4-4.6-0.6-9.3-0.6-14s0.2-9.4,0.6-14
			c0-0.5,0.4-0.8,0.8-0.9c0.9-0.1,1.6-0.2,2.4-0.2c8.3,0,15.1,6.8,15.1,15.1S104.5,72.5,96.2,72.5z M94.9,70.4
			c0.5,0,0.9,0.1,1.3,0.1c7.2,0,13.1-5.9,13.1-13.1s-5.9-13.1-13.1-13.1c-0.4,0-0.8,0-1.3,0.1c-0.3,4.3-0.5,8.6-0.5,13
			S94.6,66.1,94.9,70.4z"/>
	</g>
	<g>
		<path fill="#303C42" d="M33.5,116H20c-1.1,0-2-0.9-2-2V75.6c0-1.1,0.9-2,2-2h13.6c1.1,0,2,0.9,2,2V114
			C35.5,115.2,34.6,116,33.5,116z M22,112h9.6V77.6H22V112z"/>
	</g>
	<g>
		<path fill="#303C42" d="M38.4,124H15.1c-1.1,0-2-0.9-2-2v-8c0-1.1,0.9-2,2-2h23.3c1.1,0,2,0.9,2,2v8C40.4,123.2,39.5,124,38.4,124
			z M17.1,120h19.3v-4H17.1V120z"/>
	</g>
	<g>
		<path fill="#303C42" d="M41.2,103.6h-7.7c-1.1,0-2-0.9-2-2V90.1c0-1.1,0.9-2,2-2h7.7c1.1,0,2,0.9,2,2v11.5
			C43.2,102.7,42.3,103.6,41.2,103.6z M35.5,99.6h3.7v-7.5h-3.7V99.6z"/>
	</g>
	<g>
		<path fill="none" stroke="#303C42" stroke-width="4" stroke-linecap="round" stroke-linejoin="round" stroke-miterlimit="10" d="
			M46.7,37.4"/>
	</g>
	<g>
		<path fill="#303C42" d="M41,51.3H3.3c-0.6,0-1-0.4-1-1s0.4-1,1-1H41c0.6,0,1,0.4,1,1S41.6,51.3,41,51.3z"/>
	</g>
	<g>
		<path fill="#303C42" d="M41,65.5H3.3c-0.6,0-1-0.4-1-1s0.4-1,1-1H41c0.6,0,1,0.4,1,1S41.6,65.5,41,65.5z"/>
	</g>
</g>
</svg>
