<?xml version="1.0" encoding="utf-8"?>
<!-- Generator: Adobe Illustrator 18.1.1, SVG Export Plug-In . SVG Version: 6.00 Build 0)  -->
<svg version="1.1" id="Layer_1" xmlns="http://www.w3.org/2000/svg" xmlns:xlink="http://www.w3.org/1999/xlink" x="0px" y="0px"
	 viewBox="0 0 128 128" enable-background="new 0 0 128 128" xml:space="preserve">
<g>
	<g>
		<path fill="#303C42" d="M102,65.5c-0.4,0-0.8-0.1-1.2-0.4L54.9,31.5L9,65.1c-0.9,0.7-2.1,0.5-2.8-0.4l-5.4-7.3
			c-0.3-0.4-0.4-1-0.4-1.5c0.1-0.5,0.4-1,0.8-1.3l52.4-38.4c0.7-0.5,1.7-0.5,2.4,0l52.4,38.4c0.4,0.3,0.7,0.8,0.8,1.3
			c0.1,0.5,0,1.1-0.4,1.5l-5.4,7.3C103.2,65.2,102.6,65.5,102,65.5z M54.9,27.1c0.4,0,0.8,0.1,1.2,0.4l45.5,33.3l3-4.1L54.9,20.3
			L5.3,56.6l3,4.1l45.5-33.3C54.1,27.2,54.5,27.1,54.9,27.1z"/>
	</g>
	<g>
		<path fill="#303C42" d="M75.1,109.8H17c-1.1,0-2-0.9-2-2v-51c0-0.6,0.3-1.2,0.8-1.6l38-27.8c0.7-0.5,1.7-0.5,2.4,0l38,27.8
			c0.5,0.4,0.8,1,0.8,1.6v17.7c0,1.1-0.9,2-2,2h-15c-0.5,0-0.9,0.4-0.9,0.9v30.5C77.1,108.9,76.2,109.8,75.1,109.8z M19,105.8h54.1
			V77.3c0-2.7,2.2-4.9,4.9-4.9h13V57.8l-36-26.3L19,57.8V105.8z"/>
	</g>
	<g>
		<path fill="#303C42" d="M23.5,42.8c-0.3,0-0.6-0.1-0.9-0.2c-0.7-0.3-1.1-1-1.1-1.8V21.3c0-1.1,0.9-2,2-2H35c1.1,0,2,0.9,2,2v11.1
			c0,0.6-0.3,1.2-0.8,1.6l-11.5,8.4C24.4,42.7,23.9,42.8,23.5,42.8z M25.5,23.3v13.6l7.5-5.5v-8.1H25.5z"/>
	</g>
	<g>
		<path fill="#303C42" d="M54.9,61.3c-5.2,0-9.5-4.2-9.5-9.5s4.2-9.5,9.5-9.5c5.2,0,9.5,4.2,9.5,9.5S60.1,61.3,54.9,61.3z
			 M54.9,44.3c-4.1,0-7.5,3.3-7.5,7.5s3.3,7.5,7.5,7.5s7.5-3.3,7.5-7.5S59,44.3,54.9,44.3z"/>
	</g>
	<g>
		<path fill="#303C42" d="M37.2,23.3H21.3c-1.1,0-2-0.9-2-2v-8.5c0-1.1,0.9-2,2-2h15.9c1.1,0,2,0.9,2,2v8.5
			C39.2,22.4,38.3,23.3,37.2,23.3z M23.3,19.3h11.9v-4.5H23.3V19.3z"/>
	</g>
	<g>
		<path fill="#303C42" d="M65.6,108.8H44.3c-0.6,0-1-0.4-1-1V85.1c0-6.4,5.2-11.6,11.6-11.6s11.6,5.2,11.6,11.6v22.7
			C66.6,108.3,66.1,108.8,65.6,108.8z M45.3,106.8h19.3V85.1c0-5.3-4.3-9.6-9.6-9.6s-9.6,4.3-9.6,9.6V106.8z"/>
	</g>
	<g>
		<path fill="#303C42" d="M122.6,117.2H78c-2.7,0-4.9-2.2-4.9-4.9v-35c0-2.7,2.2-4.9,4.9-4.9h44.7c2.7,0,4.9,2.2,4.9,4.9v35
			C127.5,115,125.3,117.2,122.6,117.2z M78,76.4c-0.5,0-0.9,0.4-0.9,0.9v35c0,0.5,0.4,0.9,0.9,0.9h44.7c0.5,0,0.9-0.4,0.9-0.9v-35
			c0-0.5-0.4-0.9-0.9-0.9H78z"/>
	</g>
	<g>
		<path fill="#303C42" d="M86.2,84.7c-1.2,0-2.2,0.4-3,1.2c-0.8,0.8-1.2,1.8-1.2,3s0.4,2.2,1.2,3c0.8,0.8,1.8,1.2,3,1.2
			c1.2,0,2.2-0.4,3-1.2c0.8-0.8,1.2-1.8,1.2-3s-0.4-2.2-1.2-3C88.4,85.1,87.4,84.7,86.2,84.7L86.2,84.7z M86.2,91.4
			c-0.7,0-1.2-0.3-1.7-0.8c-0.5-0.5-0.7-1.1-0.7-1.8c0-0.7,0.2-1.3,0.7-1.8c0.5-0.5,1-0.8,1.7-0.8c0.7,0,1.2,0.3,1.7,0.8
			c0.5,0.5,0.7,1.1,0.7,1.8c0,0.7-0.2,1.3-0.7,1.8C87.5,91.2,86.9,91.4,86.2,91.4L86.2,91.4z"/>
	</g>
	<g>
		<path fill="#303C42" d="M86.2,84.7c-1.2,0-2.2,0.4-3,1.2c-0.8,0.8-1.2,1.8-1.2,3c0,1.2,0.4,2.2,1.2,3c0.8,0.8,1.8,1.2,3,1.2
			c1.2,0,2.2-0.4,3-1.2c0.8-0.8,1.2-1.8,1.2-3c0-1.2-0.4-2.2-1.2-3C88.4,85.1,87.4,84.7,86.2,84.7L86.2,84.7z M86.2,91.4
			c-0.7,0-1.2-0.3-1.7-0.8c-0.5-0.5-0.7-1.1-0.7-1.8c0-0.7,0.2-1.3,0.7-1.8c0.5-0.5,1-0.8,1.7-0.8c0.7,0,1.2,0.3,1.7,0.8
			c0.5,0.5,0.7,1.1,0.7,1.8c0,0.7-0.2,1.3-0.7,1.8C87.5,91.2,86.9,91.4,86.2,91.4L86.2,91.4z"/>
	</g>
	<g>
		<path fill="#303C42" d="M94.8,84.9H92v8h1.8v-2.2h1.1c1.2,0,2.1-0.2,2.7-0.7c0.6-0.5,0.9-1.2,0.9-2.2s-0.3-1.7-0.8-2.2
			C97,85.1,96.1,84.9,94.8,84.9L94.8,84.9z M93.8,89.1v-2.7h1c0.6,0,1,0.1,1.3,0.3c0.3,0.2,0.4,0.5,0.4,1c0,0.5-0.1,0.8-0.3,1.1
			C96,89,95.6,89.1,95,89.1H93.8L93.8,89.1z"/>
	</g>
	<g>
		<path fill="#303C42" d="M94.8,84.9H92v8h1.8v-2.2h1.1c1.2,0,2.1-0.2,2.7-0.7c0.6-0.5,0.9-1.2,0.9-2.2c0-1-0.3-1.7-0.8-2.2
			C97,85.1,96.1,84.9,94.8,84.9L94.8,84.9z M93.8,89.1v-2.7h1c0.6,0,1,0.1,1.3,0.3c0.3,0.2,0.4,0.5,0.4,1s-0.1,0.8-0.3,1.1
			C96,89,95.6,89.1,95,89.1H93.8L93.8,89.1z"/>
	</g>
	<g>
		<polygon fill="#303C42" points="105.6,84.9 99.8,84.9 99.8,92.9 105.7,92.9 105.7,91.3 101.6,91.3 101.6,89.7 105.2,89.7 
			105.2,88.1 101.6,88.1 101.6,86.5 105.6,86.5 105.6,84.9 		"/>
	</g>
	<g>
		<polygon fill="#303C42" points="105.6,84.9 99.8,84.9 99.8,92.9 105.7,92.9 105.7,91.3 101.6,91.3 101.6,89.7 105.2,89.7 
			105.2,88.1 101.6,88.1 101.6,86.5 105.6,86.5 105.6,84.9 		"/>
	</g>
	<g>
		<polygon fill="#303C42" points="114.7,84.9 112.9,84.9 112.9,90.1 109,84.9 107.3,84.9 107.3,92.9 109.1,92.9 109.1,87.9 
			112.9,92.9 114.7,92.9 114.7,84.9 		"/>
	</g>
	<g>
		<polygon fill="#303C42" points="114.7,84.9 112.9,84.9 112.9,90.1 109,84.9 107.3,84.9 107.3,92.9 109.1,92.9 109.1,87.9 
			112.9,92.9 114.7,92.9 114.7,84.9 		"/>
	</g>
	<g>
		<polygon fill="#303C42" points="87,96.8 85.2,96.8 85.2,100.1 82,100.1 82,96.8 80.2,96.8 80.2,104.8 82,104.8 82,101.7 
			85.2,101.7 85.2,104.8 87,104.8 87,96.8 		"/>
	</g>
	<g>
		<polygon fill="#303C42" points="87,96.8 85.2,96.8 85.2,100.1 82,100.1 82,96.8 80.2,96.8 80.2,104.8 82,104.8 82,101.7 
			85.2,101.7 85.2,104.8 87,104.8 87,96.8 		"/>
	</g>
	<g>
		<path fill="#303C42" d="M92.7,96.6c-1.2,0-2.2,0.4-3,1.2c-0.8,0.8-1.2,1.8-1.2,3c0,1.2,0.4,2.2,1.2,3c0.8,0.8,1.8,1.2,3,1.2
			c1.2,0,2.2-0.4,3-1.2c0.8-0.8,1.2-1.8,1.2-3c0-1.2-0.4-2.2-1.2-3C94.9,97,93.9,96.6,92.7,96.6L92.7,96.6z M92.7,103.3
			c-0.7,0-1.2-0.3-1.7-0.8c-0.5-0.5-0.7-1.1-0.7-1.8c0-0.7,0.2-1.3,0.7-1.8c0.5-0.5,1-0.8,1.7-0.8s1.2,0.3,1.7,0.8
			c0.5,0.5,0.7,1.1,0.7,1.8c0,0.7-0.2,1.3-0.7,1.8C94,103.1,93.4,103.3,92.7,103.3L92.7,103.3z"/>
	</g>
	<g>
		<path fill="#303C42" d="M92.7,96.6c-1.2,0-2.2,0.4-3,1.2c-0.8,0.8-1.2,1.8-1.2,3c0,1.2,0.4,2.2,1.2,3c0.8,0.8,1.8,1.2,3,1.2
			c1.2,0,2.2-0.4,3-1.2c0.8-0.8,1.2-1.8,1.2-3c0-1.2-0.4-2.2-1.2-3C94.9,97,93.9,96.6,92.7,96.6L92.7,96.6z M92.7,103.3
			c-0.7,0-1.2-0.3-1.7-0.8c-0.5-0.5-0.7-1.1-0.7-1.8c0-0.7,0.2-1.3,0.7-1.8c0.5-0.5,1-0.8,1.7-0.8s1.2,0.3,1.7,0.8
			c0.5,0.5,0.7,1.1,0.7,1.8c0,0.7-0.2,1.3-0.7,1.8C94,103.1,93.4,103.3,92.7,103.3L92.7,103.3z"/>
	</g>
	<g>
		<path fill="#303C42" d="M105.3,96.8h-1.8v4.4c0,0.6-0.1,1.2-0.4,1.5c-0.3,0.4-0.7,0.6-1.2,0.6c-0.5,0-0.9-0.2-1.2-0.6
			c-0.3-0.4-0.4-0.9-0.4-1.5v-4.4h-1.8v4.5c0,1.2,0.3,2.1,1,2.7c0.6,0.6,1.5,0.9,2.5,0.9c1,0,1.8-0.3,2.5-0.9c0.6-0.6,1-1.5,1-2.7
			V96.8L105.3,96.8z"/>
	</g>
	<g>
		<path fill="#303C42" d="M105.3,96.8h-1.8v4.4c0,0.6-0.1,1.2-0.4,1.5c-0.3,0.4-0.7,0.6-1.2,0.6c-0.5,0-0.9-0.2-1.2-0.6
			c-0.3-0.4-0.4-0.9-0.4-1.5v-4.4h-1.8v4.5c0,1.2,0.3,2.1,1,2.7c0.6,0.6,1.5,0.9,2.5,0.9c1,0,1.8-0.3,2.5-0.9c0.6-0.6,1-1.5,1-2.7
			V96.8L105.3,96.8z"/>
	</g>
	<g>
		<path fill="#303C42" d="M109.8,96.6c-0.8,0-1.5,0.2-2.1,0.6c-0.5,0.4-0.8,1-0.8,1.8c0,0.8,0.2,1.3,0.7,1.7
			c0.4,0.4,1.1,0.6,2.1,0.9c0.6,0.1,1,0.3,1.2,0.4c0.2,0.1,0.3,0.3,0.3,0.6c0,0.2-0.1,0.4-0.3,0.6c-0.2,0.1-0.4,0.2-0.8,0.2
			c-0.7,0-1.5-0.4-2.4-1.1l-1.1,1.3c1,0.9,2.2,1.4,3.4,1.4c0.9,0,1.6-0.2,2.1-0.7c0.5-0.4,0.8-1,0.8-1.8c0-0.7-0.2-1.3-0.6-1.6
			c-0.4-0.4-1-0.7-1.8-0.8c-0.8-0.2-1.3-0.4-1.5-0.5c-0.2-0.1-0.3-0.3-0.3-0.6s0.1-0.4,0.3-0.6c0.2-0.1,0.4-0.2,0.7-0.2
			c0.7,0,1.5,0.3,2.2,0.8l0.9-1.3c-0.4-0.3-0.9-0.6-1.4-0.8C110.8,96.7,110.3,96.6,109.8,96.6L109.8,96.6z"/>
	</g>
	<g>
		<path fill="#303C42" d="M109.8,96.6c-0.8,0-1.5,0.2-2.1,0.6s-0.8,1-0.8,1.8c0,0.8,0.2,1.3,0.7,1.7c0.4,0.4,1.1,0.6,2.1,0.9
			c0.6,0.1,1,0.3,1.2,0.4c0.2,0.1,0.3,0.3,0.3,0.6s-0.1,0.4-0.3,0.6c-0.2,0.1-0.4,0.2-0.8,0.2c-0.7,0-1.5-0.4-2.4-1.1l-1.1,1.3
			c1,0.9,2.2,1.4,3.4,1.4c0.9,0,1.6-0.2,2.1-0.7c0.5-0.4,0.8-1,0.8-1.8c0-0.7-0.2-1.3-0.6-1.6c-0.4-0.4-1-0.7-1.8-0.8
			c-0.8-0.2-1.3-0.4-1.5-0.5c-0.2-0.1-0.3-0.3-0.3-0.6c0-0.2,0.1-0.4,0.3-0.6c0.2-0.1,0.4-0.2,0.7-0.2c0.7,0,1.5,0.3,2.2,0.8
			l0.9-1.3c-0.4-0.3-0.9-0.6-1.4-0.8C110.8,96.7,110.3,96.6,109.8,96.6L109.8,96.6z"/>
	</g>
	<g>
		<polygon fill="#303C42" points="120.3,96.8 114.5,96.8 114.5,104.8 120.4,104.8 120.4,103.2 116.3,103.2 116.3,101.6 119.9,101.6 
			119.9,100 116.3,100 116.3,98.4 120.3,98.4 120.3,96.8 		"/>
	</g>
	<g>
		<polygon fill="#303C42" points="120.3,96.8 114.5,96.8 114.5,104.8 120.4,104.8 120.4,103.2 116.3,103.2 116.3,101.6 119.9,101.6 
			119.9,100 116.3,100 116.3,98.4 120.3,98.4 120.3,96.8 		"/>
	</g>
</g>
</svg>
